<?xml version="1.0" standalone="no"?>
<!DOCTYPE svg PUBLIC "-//W3C//DTD SVG 20010904//EN"
 "http://www.w3.org/TR/2001/REC-SVG-20010904/DTD/svg10.dtd">
<svg version="1.0" xmlns="http://www.w3.org/2000/svg"
 width="403.000000pt" height="403.000000pt" viewBox="0 0 403.000000 403.000000"
 preserveAspectRatio="xMidYMid meet">
<metadata>
Created by potrace 1.11, written by Peter Selinger 2001-2013
</metadata>
<g transform="translate(0.000000,403.000000) scale(0.100000,-0.100000)"
fill="#000000" stroke="none">
<path d="M0 3089 l0 -915 35 -14 c22 -9 35 -20 35 -32 0 -24 -30 -58 -52 -58
-17 0 -18 -50 -18 -1031 l0 -1030 68 1 c37 0 286 -2 554 -5 427 -6 490 -4 510
9 20 13 36 14 113 4 140 -17 1703 -16 2375 1 8 1 71 -1 140 -2 69 -2 158 -2
198 1 l72 5 0 104 c0 90 -3 109 -21 134 -11 16 -16 29 -10 29 6 0 11 -4 11
-10 0 -5 5 -10 10 -10 7 0 10 207 10 600 l0 601 -77 -7 c-43 -4 -85 -10 -94
-15 -9 -5 -20 -5 -24 -1 -4 4 -6 -3 -3 -14 4 -17 2 -20 -14 -16 -11 2 -23 15
-28 27 -5 13 -15 25 -22 27 -10 4 -9 10 5 26 16 17 28 20 90 17 40 -1 93 -6
120 -10 l47 -7 0 630 c-1 536 -3 630 -15 626 -10 -4 -13 2 -11 23 2 15 1 32
-2 38 -3 5 -7 18 -8 30 -6 47 -25 114 -47 165 -19 41 -39 66 -78 95 -29 22
-105 91 -168 154 -64 62 -141 131 -171 154 -30 22 -57 43 -60 46 -11 13 -78
59 -124 85 -49 29 -49 29 -175 21 -130 -7 -161 -17 -159 -53 2 -22 -22 -122
-34 -146 -6 -10 -14 -43 -19 -72 -5 -30 -13 -79 -18 -109 -11 -66 -36 -171
-57 -243 -9 -29 -14 -55 -11 -58 2 -3 -4 -28 -14 -55 -11 -28 -17 -54 -15 -58
3 -4 -3 -39 -13 -79 -16 -62 -26 -78 -70 -121 -28 -27 -51 -53 -52 -58 0 -4
-2 -17 -4 -28 -2 -11 -5 -44 -6 -73 -3 -58 -1 -57 -79 -25 -63 26 -95 73 -49
73 17 0 19 3 10 14 -9 11 -9 15 1 20 7 3 4 5 -7 3 -15 -3 -21 1 -21 14 0 22 1
22 28 8 15 -8 31 -7 64 6 47 18 74 43 33 30 -13 -4 -26 -11 -29 -15 -10 -15
-51 -21 -64 -10 -21 16 -8 52 15 45 14 -5 17 -2 13 9 -3 9 -2 16 4 16 6 0 12
-6 15 -12 2 -7 8 -10 12 -6 5 5 1 16 -9 27 -16 18 -16 18 11 13 15 -2 36 -11
46 -20 16 -14 17 -13 17 16 0 17 5 32 12 34 9 3 9 6 0 12 -7 4 -12 2 -12 -3 0
-6 -9 -11 -21 -11 -14 0 -18 4 -12 13 4 6 8 17 8 22 0 6 15 10 34 9 l34 -1
-22 18 c-20 17 -21 20 -8 34 9 8 20 15 26 15 15 0 14 17 -1 26 -7 5 -5 11 8
21 15 11 16 15 5 22 -11 7 -11 9 0 14 9 3 4 9 -14 16 l-28 11 33 59 c21 39 37
57 46 53 11 -4 13 1 7 17 -11 36 3 109 23 114 16 4 16 5 0 6 -23 1 -23 1 6
124 13 56 27 121 31 145 8 48 27 91 46 103 7 4 13 25 12 46 -1 21 4 44 9 51 8
9 5 21 -10 42 -12 16 -19 36 -16 45 4 8 1 22 -6 30 -9 11 -10 18 -1 28 16 20
0 30 -19 12 -15 -13 -20 -14 -31 -3 -8 8 -47 40 -86 71 -81 64 -95 97 -44 97
17 0 33 -4 36 -10 3 -5 15 -10 26 -10 10 0 19 -4 19 -10 0 -5 7 -10 16 -10 8
0 12 -5 8 -11 -4 -8 1 -9 16 -4 15 5 20 4 16 -4 -4 -6 0 -11 9 -11 9 0 14 -4
11 -9 -4 -5 4 -7 15 -4 21 6 21 7 -7 27 -16 12 -40 32 -54 44 l-25 24 40 -23
c22 -12 50 -31 62 -42 l22 -20 -22 -19 c-21 -18 -21 -19 -2 -14 27 7 50 -8 39
-25 -6 -12 -5 -12 8 -1 8 7 24 9 34 5 17 -6 16 -7 -2 -14 -19 -7 -19 -8 0 -8
19 -1 19 -1 1 -15 -23 -17 -27 -42 -10 -56 19 -16 58 -3 51 17 -4 10 -1 13 13
8 10 -3 30 -1 44 4 21 8 25 7 20 -4 -4 -11 3 -15 26 -15 17 0 31 -4 31 -8 0
-14 47 -31 69 -25 15 4 21 1 21 -11 0 -9 4 -16 8 -16 4 0 8 9 8 20 0 11 -6 20
-14 20 -7 0 -10 5 -7 10 4 7 -3 9 -22 5 -15 -3 -22 -2 -15 1 17 8 15 27 -2 21
-10 -4 -13 -1 -9 9 3 7 6 14 8 14 1 0 50 -22 108 -50 58 -27 108 -50 110 -50
3 0 22 -8 43 -17 22 -9 47 -15 58 -14 15 2 17 -2 12 -24 -6 -24 -2 -28 44 -47
46 -19 50 -23 45 -47 -5 -22 2 -34 40 -71 44 -42 72 -80 61 -80 -3 0 -52 47
-109 105 -58 57 -107 102 -110 99 -6 -6 32 -53 70 -87 12 -11 20 -24 17 -28
-3 -5 4 -14 16 -21 11 -7 20 -16 20 -21 0 -12 77 -87 89 -87 6 0 11 -4 11 -9
0 -9 50 -61 117 -123 36 -33 60 -38 41 -9 -7 11 -22 25 -35 32 -12 7 -20 15
-18 20 3 4 -9 20 -26 36 -16 15 -40 42 -52 58 -12 18 5 6 44 -30 35 -33 68
-67 73 -75 5 -8 19 -22 30 -30 20 -13 35 -30 100 -105 l25 -30 1 484 0 483
-427 -6 c-236 -3 -435 -6 -443 -5 -8 0 -514 2 -1125 4 -610 3 -1318 6 -1573 8
l-462 2 0 -916z m105 901 c3 -5 -1 -10 -10 -10 -9 0 -13 5 -10 10 3 6 8 10 10
10 2 0 7 -4 10 -10z m826 -26 c10 -13 8 -19 -16 -41 l-28 -26 -17 23 c-24 32
-15 60 20 60 15 0 33 -7 41 -16z m1843 -33 c3 -4 -6 -6 -19 -3 -14 2 -25 6
-25 8 0 8 39 4 44 -5z m284 -122 c44 -1 45 -1 17 -10 -34 -10 -95 -2 -95 13 0
6 7 7 16 4 9 -3 37 -6 62 -7z m66 -38 c3 -5 -1 -11 -8 -14 -8 -3 -16 -1 -18 5
-3 7 -10 8 -17 4 -11 -7 -11 -10 0 -18 10 -6 7 -7 -8 -3 -18 5 -22 3 -17 -9 4
-11 0 -13 -15 -9 -26 7 -26 10 2 34 23 19 72 25 81 10z m-1301 -78 c3 -5 8
-24 11 -43 l7 -35 -20 25 -21 25 0 -28 c0 -15 -7 -30 -15 -34 -21 -7 -32 4
-17 19 7 7 12 20 12 30 0 30 32 60 43 41z m-1266 -145 c96 -77 125 -96 186
-127 53 -25 57 -40 6 -22 -40 14 -62 14 -54 1 4 -6 10 -8 15 -5 4 3 6 -3 4
-12 -3 -14 13 -26 68 -52 40 -18 81 -37 91 -43 11 -5 22 -7 25 -4 3 3 -1 6 -8
6 -7 0 -11 2 -8 5 9 9 38 -7 38 -21 0 -7 9 -18 20 -24 11 -6 20 -16 20 -24 0
-16 53 -76 68 -76 7 0 12 -4 12 -9 0 -18 53 -72 66 -67 15 6 37 -17 27 -28 -4
-4 0 -4 8 -1 11 4 27 -5 45 -25 36 -39 78 -62 98 -54 23 9 20 15 -26 52 -22
17 -36 32 -31 32 4 0 31 -18 58 -41 61 -50 64 -54 43 -46 -10 4 -18 3 -18 0 0
-12 45 -73 54 -73 5 0 3 7 -4 15 -7 8 -8 15 -2 15 14 0 33 -25 25 -33 -3 -4 1
-7 11 -7 9 0 15 -4 12 -8 -3 -5 6 -19 20 -31 23 -20 28 -21 55 -9 18 8 27 18
24 27 -5 11 -3 12 10 1 12 -10 13 -15 4 -20 -6 -4 -9 -12 -5 -18 3 -6 1 -14
-5 -18 -8 -4 -9 -3 -5 4 4 7 1 12 -8 12 -8 0 -18 -4 -21 -10 -3 -5 -2 -10 2
-10 5 0 14 -13 20 -30 6 -16 25 -38 42 -47 17 -10 29 -24 26 -30 -6 -18 13
-16 31 2 9 8 12 15 7 15 -5 0 -10 11 -11 26 -1 14 2 23 7 20 12 -8 32 -66 22
-66 -14 0 -10 -71 5 -77 8 -3 14 -9 14 -15 0 -9 39 -49 71 -72 8 -6 21 -20 27
-31 10 -17 11 -17 12 -3 0 11 5 15 15 12 8 -4 12 -10 9 -16 -3 -5 3 -12 15
-15 20 -5 30 -41 15 -56 -9 -9 -65 14 -104 42 -65 47 -197 186 -259 271 -17
23 -50 55 -73 70 -24 15 -52 36 -63 46 -11 11 -40 32 -65 48 -45 30 -92 68
-222 183 -112 99 -137 113 -219 124 -66 10 -74 9 -92 -10 -11 -11 -23 -39 -26
-63 -6 -44 -5 -59 24 -303 12 -109 15 -181 9 -323 -6 -167 -8 -183 -26 -193
-11 -6 -22 -8 -25 -5 -3 2 0 42 6 87 15 110 14 175 -4 251 -8 35 -17 106 -21
158 -3 52 -13 145 -21 205 -8 61 -16 120 -17 132 -2 13 -6 26 -9 30 -9 9 -9
105 1 119 4 6 15 13 25 17 9 3 17 11 17 18 0 16 -137 150 -188 184 -41 27 -46
35 -43 65 4 32 11 40 40 40 21 0 52 -17 108 -62z m650 -104 c-9 -9 -28 6 -21
18 4 6 10 6 17 -1 6 -6 8 -13 4 -17z m-460 -70 c-3 -3 -12 -4 -19 -1 -8 3 -5
6 6 6 11 1 17 -2 13 -5z m202 -48 c53 -39 135 -125 127 -133 -3 -3 -17 2 -31
11 -14 9 -30 14 -35 11 -6 -3 -10 -1 -10 4 0 6 5 11 12 11 14 0 -33 50 -91 95
-57 45 -33 46 28 1z m-352 -13 c3 -7 -4 -9 -16 -6 -12 3 -18 9 -15 15 7 11 26
6 31 -9z m-13 -38 c-4 -8 -8 -15 -10 -15 -2 0 -4 7 -4 15 0 8 4 15 10 15 5 0
7 -7 4 -15z m548 -136 c24 -23 34 -36 23 -31 -22 11 -83 72 -72 72 4 0 26 -18
49 -41z m332 -254 c11 -8 15 -15 10 -15 -6 0 -19 7 -30 15 -10 8 -14 14 -9 14
6 0 19 -6 29 -14z m-639 -45 c3 -6 -4 -10 -17 -10 -18 0 -20 2 -8 10 19 12 18
12 25 0z m-705 -9 c0 -6 -4 -13 -10 -16 -5 -3 -10 1 -10 9 0 9 5 16 10 16 6 0
10 -4 10 -9z m1427 -28 c-4 -3 1 -12 11 -20 9 -8 11 -12 4 -8 -7 4 -19 2 -26
-4 -10 -9 -13 -6 -11 11 3 29 3 28 17 28 6 0 8 -3 5 -7z m1143 -67 c0 -2 -7
-7 -16 -10 -8 -3 -12 -2 -9 4 6 10 25 14 25 6z m1330 -62 c0 -21 -27 -17 -33
5 -3 14 0 17 14 14 11 -3 19 -12 19 -19z m-1450 -15 c0 -5 -4 -9 -10 -9 -5 0
-10 7 -10 16 0 8 5 12 10 9 6 -3 10 -10 10 -16z m-1450 -48 c0 -5 -8 -11 -17
-13 -13 -3 -9 -7 15 -18 35 -16 42 -30 15 -30 -12 0 -6 -7 16 -21 18 -11 35
-29 38 -40 3 -10 9 -19 14 -19 5 0 9 -7 9 -15 0 -8 4 -15 9 -15 5 0 13 -9 16
-20 3 -11 13 -20 21 -20 8 0 12 -4 9 -10 -12 -20 -74 -10 -122 20 -26 17 -43
30 -37 30 5 0 0 8 -11 16 -19 14 -19 16 -2 25 9 6 17 21 17 34 0 13 -8 37 -17
54 -16 28 -16 33 -3 41 19 12 30 13 30 1z m2275 -1 c3 -5 2 -10 -4 -10 -5 0
-13 5 -16 10 -3 6 -2 10 4 10 5 0 13 -4 16 -10z m-1099 -10 c43 -17 24 -19
-46 -5 -60 12 -62 13 -23 14 23 1 54 -4 69 -9z m-176 -40 c-8 -5 -19 -10 -25
-10 -5 0 -3 5 5 10 8 5 20 10 25 10 6 0 3 -5 -5 -10z m224 -43 c30 -40 15 -39
-19 1 -16 19 -23 33 -16 31 8 -3 24 -17 35 -32z m-449 13 c3 -5 2 -10 -4 -10
-5 0 -13 5 -16 10 -3 6 -2 10 4 10 5 0 13 -4 16 -10z m370 0 c3 -5 2 -10 -4
-10 -5 0 -13 5 -16 10 -3 6 -2 10 4 10 5 0 13 -4 16 -10z m-135 -30 c8 0 22 7
32 16 14 13 21 14 32 5 10 -8 16 -9 21 -1 8 12 25 4 25 -13 0 -7 -4 -6 -10 3
-7 10 -10 11 -10 2 0 -17 27 -27 43 -14 14 12 52 -10 40 -22 -10 -10 17 -26
45 -26 12 0 22 -5 22 -11 0 -6 7 -17 15 -25 11 -11 19 -12 34 -4 26 13 26 13
28 -11 2 -26 12 -37 21 -24 8 12 47 13 58 3 4 -5 -4 -8 -17 -8 -21 -1 -22 -2
-8 -13 9 -7 14 -17 12 -23 -6 -17 35 -24 63 -12 14 7 23 17 20 25 -6 15 -4 15
19 7 13 -5 14 -9 3 -15 -8 -6 -1 -7 18 -3 30 6 36 2 83 -57 28 -35 54 -75 58
-89 9 -33 28 -51 47 -44 9 3 23 1 31 -6 12 -10 15 -9 15 4 0 11 5 14 12 10 7
-5 8 -3 3 5 -4 7 -16 11 -26 8 -11 -3 -16 -1 -13 5 3 5 -2 16 -12 23 -38 29
14 16 98 -25 46 -21 95 -41 109 -44 14 -3 36 -15 49 -26 13 -11 27 -20 32 -20
13 0 70 -41 65 -46 -7 -7 -117 38 -117 47 0 5 -8 9 -17 10 -10 0 -45 13 -78
28 -32 15 -68 26 -79 23 -19 -5 -19 -6 -2 -16 36 -22 55 -43 61 -67 5 -20 1
-27 -17 -36 -67 -32 -82 -34 -156 -18 -80 16 -166 20 -144 6 11 -7 10 -10 -3
-15 -9 -3 -21 -3 -26 0 -5 3 -9 2 -8 -3 3 -12 -12 -46 -29 -65 -13 -16 -13
-18 1 -24 9 -3 26 1 37 9 14 10 35 13 61 10 30 -4 40 -2 45 11 3 9 11 16 17
16 5 0 3 -8 -7 -18 -15 -18 -14 -21 20 -56 19 -20 41 -34 47 -30 7 3 5 0 -4
-8 -9 -7 -16 -20 -16 -28 0 -8 -4 -31 -8 -51 -4 -23 -3 -39 4 -43 6 -4 11 -14
11 -21 0 -11 -9 -13 -32 -10 l-33 5 35 -12 c19 -6 37 -15 40 -18 3 -4 15 -12
28 -19 12 -7 20 -16 17 -22 -4 -5 -1 -9 6 -9 9 0 9 -3 0 -14 -9 -11 -9 -16 -1
-21 7 -4 10 -21 7 -39 -4 -22 3 -44 23 -77 19 -31 26 -54 23 -72 -4 -22 -2
-27 16 -27 14 0 21 6 21 19 0 14 5 18 20 14 11 -3 20 -12 20 -20 0 -8 -4 -12
-9 -8 -5 3 -13 0 -17 -6 -5 -8 -3 -9 5 -5 9 6 12 -1 9 -25 -2 -18 -9 -34 -16
-37 -9 -3 -13 3 -12 14 4 34 0 44 -16 44 -10 0 -14 -6 -10 -15 3 -10 -1 -15
-13 -15 -12 0 -17 -7 -16 -22 1 -13 -2 -26 -7 -29 -5 -3 -2 -12 7 -19 13 -11
14 -10 9 5 -5 13 -3 16 7 13 18 -6 22 -28 9 -48 -8 -13 -11 -12 -24 5 -9 12
-15 15 -16 7 0 -7 9 -23 21 -35 20 -22 20 -22 35 -2 27 39 66 74 77 69 7 -2
19 0 27 6 11 7 12 12 3 21 -8 8 -9 18 0 35 8 18 7 28 -1 36 -14 14 -16 28 -4
28 4 0 15 -20 25 -45 11 -25 23 -45 28 -45 5 0 9 -7 9 -15 0 -8 5 -15 10 -15
14 0 13 5 -11 53 -12 23 -22 44 -22 47 -1 3 -19 23 -41 44 -40 38 -31 41 11 4
11 -11 40 -24 63 -29 49 -11 98 -44 78 -53 -9 -3 -1 -15 22 -35 22 -21 29 -31
18 -31 -8 0 -21 7 -28 15 -8 9 -22 13 -39 10 -18 -4 -20 -3 -8 3 16 7 16 9 -4
25 -26 23 -36 15 -21 -18 7 -16 20 -25 33 -25 21 0 21 -1 6 -18 -13 -14 -14
-21 -5 -30 7 -7 17 -12 23 -12 7 0 20 -9 29 -19 10 -11 31 -25 47 -31 23 -10
27 -15 18 -26 -6 -8 -8 -14 -4 -14 4 0 14 8 20 17 12 17 14 17 34 -1 12 -11
21 -25 21 -32 0 -7 9 -18 20 -24 20 -11 28 -40 10 -40 -5 0 -7 6 -4 14 4 11 0
13 -15 9 -11 -3 -22 -12 -25 -20 -3 -7 -2 -12 3 -8 5 3 11 0 13 -6 3 -9 10 -9
27 0 12 7 24 11 25 9 57 -74 67 -100 62 -153 -4 -30 -15 -78 -26 -105 -11 -28
-20 -60 -20 -71 0 -28 -40 -79 -62 -79 -10 0 -18 -4 -18 -10 0 -5 -6 -10 -14
-10 -8 0 -18 -9 -21 -20 -4 -11 -10 -18 -15 -15 -5 3 -24 -4 -44 -16 -29 -17
-48 -20 -106 -17 -58 2 -68 1 -53 -9 9 -7 34 -13 55 -13 46 0 98 -24 98 -45 0
-14 -18 -14 -90 2 -14 3 -38 7 -55 9 -43 4 -152 49 -197 81 -41 28 -56 26 -40
-3 10 -18 91 -56 206 -96 41 -14 54 -23 45 -29 -15 -9 44 -15 113 -11 20 1 39
-2 43 -8 3 -5 17 -10 31 -10 29 0 30 -10 6 -40 l-19 -23 -54 26 c-29 14 -57
23 -62 20 -22 -13 -57 -86 -57 -118 0 -24 -5 -35 -15 -35 -8 0 -15 3 -15 8 0
18 -53 62 -75 62 -18 0 -29 -10 -46 -45 -12 -25 -27 -45 -33 -45 -19 0 -33 14
-39 40 -10 40 -66 118 -98 137 -36 21 -36 38 -4 85 14 20 25 42 25 49 0 7 -18
28 -41 47 l-40 35 4 91 c4 95 25 213 52 287 31 84 36 104 23 91 -18 -18 -28
-14 -28 11 0 70 -57 184 -121 241 -41 36 -163 106 -186 106 -11 -1 40 -39 52
-40 18 0 122 -74 147 -105 77 -93 99 -220 69 -405 -8 -47 -20 -104 -27 -128
-8 -23 -14 -64 -14 -90 0 -40 -5 -53 -27 -74 -61 -55 -181 -88 -325 -88 -153
0 -308 45 -418 122 -137 96 -168 120 -208 164 -48 52 -103 142 -121 197 -17
49 -14 193 4 242 13 36 14 37 15 12 0 -15 10 -48 21 -73 12 -25 23 -55 24 -67
1 -12 3 -28 4 -35 0 -7 17 -20 36 -28 19 -8 35 -18 35 -23 0 -5 24 -11 53 -14
40 -4 59 -1 83 14 32 20 58 63 49 82 -3 7 2 2 11 -11 20 -26 31 -28 56 -5 22
19 23 64 4 101 -12 23 -83 94 -140 140 -9 7 -16 21 -16 31 0 20 23 28 150 56
87 19 202 75 257 126 21 19 53 44 70 54 18 10 47 39 65 65 17 25 34 47 37 50
4 3 6 10 6 15 1 6 5 54 9 107 7 82 12 102 32 123 13 14 21 25 18 25 -3 0 4 15
15 34 21 33 30 113 12 102 -5 -4 -12 -24 -16 -47 -4 -22 -19 -55 -35 -72 -39
-46 -48 -66 -51 -122 -3 -54 -30 -141 -57 -184 -35 -56 -176 -185 -222 -203
-30 -11 -247 -68 -262 -68 -6 0 -3 11 6 25 14 22 15 25 1 25 -8 0 -15 -4 -15
-10 0 -5 -6 -7 -14 -4 -7 3 -28 -7 -46 -23 -18 -15 -31 -23 -29 -18 22 49 36
72 50 82 10 8 15 21 12 32 -3 10 0 28 6 40 9 16 9 21 -1 21 -9 0 -13 15 -13
44 0 24 3 42 7 40 14 -9 -5 37 -21 49 -9 7 -24 26 -33 42 -19 34 -56 50 -44
19 11 -26 19 -64 20 -95 1 -15 7 -34 15 -42 7 -9 11 -26 9 -39 -3 -20 -8 -23
-37 -20 -31 3 -33 2 -28 -18 3 -13 0 -29 -9 -37 -8 -8 -14 -10 -14 -4 0 6 -7
11 -15 11 -8 0 -15 -4 -15 -10 0 -5 -7 -10 -15 -10 -7 0 -18 -6 -22 -14 -8
-15 -10 -16 -45 -16 -19 0 -20 -2 -8 -10 8 -5 12 -10 8 -11 -5 -1 -12 -3 -18
-4 -5 -1 -17 -3 -25 -4 -8 0 -15 -8 -15 -17 0 -11 -6 -14 -20 -9 -14 4 -20 2
-20 -9 0 -9 -11 -23 -25 -32 -14 -9 -25 -23 -25 -30 0 -8 -5 -14 -11 -14 -8 0
-8 -4 0 -13 8 -10 7 -17 -2 -27 -9 -10 -9 -11 1 -6 8 5 12 -1 12 -18 0 -19 -4
-24 -15 -20 -11 4 -14 0 -13 -12 3 -29 -13 -94 -24 -94 -5 0 -6 -10 -3 -21 5
-13 3 -19 -3 -15 -10 6 -22 -15 -22 -41 0 -8 -26 -52 -57 -98 -75 -110 -113
-129 -254 -128 -69 0 -106 5 -133 18 -38 18 -76 62 -76 89 0 13 6 12 36 -6 32
-19 45 -20 135 -15 88 5 134 17 149 37 3 3 22 19 43 35 37 28 56 57 64 100 2
10 10 29 18 42 8 12 15 29 15 38 0 9 11 51 25 93 14 42 29 100 35 127 37 179
37 156 -4 226 -20 35 -42 73 -49 84 -24 39 -82 101 -142 150 -33 27 -62 52
-65 55 -7 8 -109 74 -145 94 -16 9 -46 26 -65 37 -37 23 -55 22 -170 -7 -75
-18 -124 -21 -196 -10 -42 7 -53 5 -68 -9 -14 -14 -22 -16 -42 -7 -21 10 -24
18 -24 64 0 52 23 102 67 146 7 7 13 17 13 22 0 5 10 15 23 21 19 11 21 10 9
-3 -10 -13 -10 -17 0 -21 10 -4 10 -8 -2 -16 -13 -10 -13 -13 3 -22 9 -6 15
-14 12 -19 -3 -5 2 -13 12 -19 23 -12 100 -18 109 -8 4 4 -1 7 -12 8 -10 0
-13 3 -6 6 6 2 12 13 12 24 0 20 83 65 148 80 35 7 102 -12 102 -30 0 -3 -21
-7 -48 -8 -37 -1 -52 -7 -69 -27 -12 -14 -27 -26 -33 -26 -7 0 -6 -5 2 -14 11
-12 19 -11 50 5 21 11 44 19 53 19 9 0 18 7 21 15 9 21 21 18 27 -7 5 -18 8
-19 21 -8 13 10 16 10 16 -2 0 -7 14 -22 30 -31 18 -11 30 -14 30 -7 0 6 5 8
10 5 6 -4 8 -10 5 -15 -6 -10 19 -20 51 -20 18 0 22 -4 17 -17 -5 -14 -3 -15
7 -6 7 6 19 9 28 5 13 -5 12 -7 -4 -13 -16 -6 -15 -8 9 -8 24 -1 32 -10 28
-34 -1 -5 3 -6 9 -2 6 3 8 11 5 16 -10 14 11 10 24 -5 9 -11 9 -15 -1 -20 -7
-3 -1 -3 15 0 26 6 40 -10 15 -18 -7 -3 -6 -7 5 -11 9 -3 17 -2 17 2 0 5 9 7
20 4 16 -4 19 -2 14 12 -6 15 -5 16 15 4 29 -19 27 -26 -9 -34 -34 -8 -37 -17
-12 -36 15 -12 16 -12 4 2 -11 14 -8 17 20 23 19 4 34 2 36 -4 2 -5 12 -10 22
-10 10 0 20 -6 23 -14 3 -8 16 -16 29 -18 13 -2 23 -9 23 -17 0 -8 7 -16 15
-18 13 -4 13 -3 0 6 -21 15 0 13 30 -2 14 -8 40 -19 58 -25 26 -9 32 -8 32 4
0 16 41 60 53 56 4 -1 7 2 7 8 0 5 -4 10 -10 10 -5 0 -10 5 -10 11 0 6 7 8 16
5 14 -5 15 -4 4 8 -11 14 -14 14 -27 1 -25 -26 -33 -16 -16 20 9 19 20 35 23
35 15 0 103 -86 111 -109 8 -19 13 -21 21 -13 9 9 8 19 -4 40 -9 15 -16 36
-15 47 3 27 24 48 39 39 9 -6 9 -3 -1 9 -7 9 -11 17 -8 17 3 0 14 3 24 6 15 5
15 4 3 -5 -13 -9 -12 -11 3 -11 12 0 16 -4 11 -12 -4 -8 -3 -10 2 -5 5 5 9 12
10 15 2 19 17 41 31 46 11 4 13 2 9 -9 -3 -8 -2 -15 2 -15 10 0 42 38 42 50 0
6 12 8 28 5 19 -4 22 -3 8 3 -17 8 -17 9 5 23 13 8 41 23 62 34 20 11 37 24
37 29 0 15 -42 56 -57 56 -8 0 -12 4 -9 9 7 11 -49 25 -64 16 -5 -3 -10 -1
-10 4 0 6 5 11 10 11 6 0 10 6 10 13 1 16 47 50 59 43 5 -4 20 -1 33 4 23 10
23 10 -3 5 -14 -2 -34 2 -45 10 -13 10 -15 14 -5 15 22 0 84 42 73 49 -6 3 1
12 14 18 21 10 24 10 14 -2 -18 -22 21 -24 43 -2 10 10 25 16 32 13 8 -3 17 0
21 6 5 7 11 6 19 -5 7 -10 18 -17 25 -17z m-1480 -10 c0 -5 -7 -10 -16 -10 -8
0 -12 5 -9 10 3 6 10 10 16 10 5 0 9 -4 9 -10z m320 -54 c0 -8 -7 -16 -15 -20
-17 -6 -18 -4 -9 18 8 20 24 21 24 2z m-72 -68 c-6 -17 -23 -9 -24 12 -1 16 1
18 13 9 7 -7 12 -16 11 -21z m987 -80 c14 -6 25 -15 25 -19 0 -9 -50 -26 -100
-34 -62 -10 -153 -35 -166 -46 -17 -14 -150 -23 -158 -11 -13 22 50 44 274 98
52 12 96 23 97 23 1 1 14 -4 28 -11z m-877 -51 c34 -16 65 -34 68 -38 6 -11
-21 -1 -61 22 -16 9 -47 22 -67 29 -21 6 -41 16 -44 22 -9 14 28 2 104 -35z
m437 -37 c-3 -5 -16 -10 -28 -9 -21 0 -21 1 -2 9 28 12 37 12 30 0z m-192 -37
c-7 -2 -19 -2 -25 0 -7 3 -2 5 12 5 14 0 19 -2 13 -5z m2131 -12 c8 -7 20 -10
25 -7 5 4 14 -1 19 -11 9 -14 15 -15 45 -6 26 8 42 8 58 -1 29 -15 35 -35 12
-42 -10 -3 -26 -10 -36 -15 -13 -7 -23 -6 -33 2 -11 9 -21 7 -46 -8 -40 -23
-116 -20 -125 6 -4 9 -12 20 -20 24 -15 9 -17 31 -3 56 11 21 80 22 104 2z
m-1923 -12 c16 -8 18 -13 8 -25 -6 -8 -19 -14 -28 -13 -12 0 -11 2 4 9 19 8
19 9 -2 9 -13 1 -23 -4 -23 -11 0 -9 -3 -9 -11 -1 -6 6 -24 8 -42 4 -18 -4
-59 -2 -92 4 l-60 11 35 11 c46 15 186 16 211 2z m-303 -40 c8 -12 8 -19 2
-19 -6 0 -13 7 -16 15 -4 8 -12 15 -19 15 -7 0 -15 7 -18 15 -9 21 35 -1 51
-26z m1846 -14 c-4 -8 -10 -12 -15 -9 -14 8 -10 24 6 24 9 0 12 -6 9 -15z
m-2908 -32 c-10 -10 -19 5 -10 18 6 11 8 11 12 0 2 -7 1 -15 -2 -18z m1362
-14 c4 -33 -15 -41 -62 -28 -37 10 -41 16 -30 44 5 12 17 15 48 13 36 -3 41
-6 44 -29z m57 -8 c-3 -6 -14 -11 -23 -11 -15 1 -15 2 2 15 21 16 32 13 21 -4z
m-966 -11 c24 0 25 -3 9 -29 -9 -15 -7 -30 12 -76 13 -31 29 -59 37 -62 7 -3
13 -11 13 -17 0 -7 16 -28 35 -46 32 -31 70 -89 63 -96 -3 -2 -64 66 -192 213
-29 33 -36 47 -27 56 16 16 14 47 -4 53 -8 4 -12 10 -9 15 3 5 13 5 24 -1 10
-5 28 -10 39 -10z m336 10 c9 -15 -4 -47 -22 -54 -21 -8 -22 -7 -16 32 5 31
25 43 38 22z m-822 -7 c-7 -2 -19 -2 -25 0 -7 3 -2 5 12 5 14 0 19 -2 13 -5z
m882 -23 c3 -5 1 -10 -4 -10 -6 0 -11 5 -11 10 0 6 2 10 4 10 3 0 8 -4 11 -10z
m545 -20 c0 -22 -5 -30 -18 -30 -30 0 -33 12 -9 35 12 13 23 23 25 24 1 1 2
-12 2 -29z m1633 18 c3 -10 7 -10 20 1 10 8 17 9 17 3 0 -6 7 -18 16 -27 9 -9
13 -19 10 -23 -4 -3 -11 0 -16 8 -5 8 -12 11 -16 8 -3 -4 1 -15 10 -24 9 -9
20 -14 23 -11 11 12 43 -14 43 -34 0 -26 -29 -77 -49 -84 -25 -10 -36 12 -21
42 7 16 14 33 15 38 1 14 -77 85 -93 85 -7 0 -10 5 -7 11 4 6 14 8 22 5 8 -3
11 -1 8 4 -3 6 -2 10 4 10 5 0 11 -6 14 -12z m-2659 -4 c12 -5 13 -10 5 -25
-14 -27 -29 -24 -29 6 0 27 1 28 24 19z m530 -20 c23 -9 21 -37 -2 -30 -10 4
-27 -1 -38 -9 -25 -19 -34 -19 -34 0 0 8 7 15 15 15 9 0 18 7 21 15 7 16 14
18 38 9z m1716 -4 c-8 -5 -19 -10 -25 -10 -5 0 -3 5 5 10 8 5 20 10 25 10 6 0
3 -5 -5 -10z m63 -25 c11 -16 13 -23 5 -20 -15 6 -42 45 -31 45 5 0 16 -12 26
-25z m283 -19 c4 -11 -39 -96 -49 -96 -8 0 -5 75 3 91 12 22 38 25 46 5z
m-2043 -10 c33 -4 43 -24 23 -44 -18 -16 -19 -16 -13 1 5 12 1 17 -13 17 -11
0 -20 4 -20 8 0 5 -10 14 -22 21 -23 11 -23 11 2 5 14 -3 33 -7 43 -8z m57 -7
c0 -6 -4 -7 -10 -4 -5 3 -10 11 -10 16 0 6 5 7 10 4 6 -3 10 -11 10 -16z m22
-35 c-13 -9 -26 -13 -30 -9 -8 8 17 25 38 25 9 0 6 -6 -8 -16z m-32 -24 c0 -6
9 -6 26 0 15 6 23 6 19 1 -3 -5 -1 -12 5 -16 5 -3 10 1 10 9 0 20 17 21 36 2
20 -20 18 -26 -10 -26 -24 0 -139 -54 -185 -87 -24 -17 -24 -17 -13 3 6 11 18
26 26 34 9 7 16 19 16 28 0 16 45 62 61 62 5 0 9 -4 9 -10z m1893 -17 c-8 -21
-23 -33 -41 -33 -7 0 0 11 15 25 34 29 34 30 26 8z m-78 -3 c8 -13 -5 -13 -25
0 -13 8 -13 10 2 10 9 0 20 -4 23 -10z m-1670 -40 c3 -5 1 -10 -4 -10 -6 0
-11 5 -11 10 0 6 2 10 4 10 3 0 8 -4 11 -10z m1781 -11 c3 -6 14 -9 24 -6 10
2 24 1 31 -4 10 -6 5 -10 -18 -15 -41 -8 -73 -38 -73 -68 0 -19 -4 -23 -20
-19 -28 7 -25 26 9 65 15 18 26 39 24 46 -6 15 13 16 23 1z m-1859 -15 c5 -16
-84 -57 -102 -47 -19 11 -7 28 35 46 39 17 61 18 67 1z m1766 0 c-3 -7 -16
-20 -30 -29 -21 -14 -27 -15 -34 -4 -21 33 -9 47 36 46 22 -1 31 -5 28 -13z
m294 1 c8 -8 13 -20 11 -26 -4 -13 -38 16 -38 32 0 13 9 11 27 -6z m-43 -22
c7 -16 -8 -33 -31 -33 -20 0 -24 18 -7 34 20 20 30 20 38 -1z m-1897 1 c-3 -3
-12 -4 -19 -1 -8 3 -5 6 6 6 11 1 17 -2 13 -5z m1830 -70 c20 -19 40 -34 44
-34 5 0 6 -7 3 -15 -4 -8 -11 -12 -16 -9 -6 4 -13 2 -17 -4 -3 -6 -18 -13 -32
-17 -19 -5 -34 0 -57 20 -35 30 -39 50 -17 82 19 27 45 21 92 -23z m-2823 -65
c6 -5 -3 -9 -25 -9 -49 0 -79 -10 -79 -27 0 -8 -5 -11 -11 -8 -6 4 -8 13 -5
21 3 9 -1 14 -12 14 -16 1 -16 2 1 14 19 15 115 11 131 -5z m2719 7 c3 -8 -1
-22 -8 -33 -13 -16 -16 -16 -25 -3 -16 25 -12 50 9 50 10 0 21 -6 24 -14z
m-2514 -19 c-23 -18 -32 -49 -17 -59 18 -11 -39 -57 -70 -58 -14 0 -21 -4 -17
-11 4 -5 0 -18 -8 -27 -8 -9 -18 -28 -22 -42 -10 -36 -43 -68 -76 -75 -21 -5
-26 -11 -22 -23 6 -15 5 -16 -13 -2 -10 8 -21 15 -23 17 -2 1 9 7 24 13 20 8
25 14 18 21 -7 7 0 21 25 46 l35 36 -32 -5 c-17 -3 -34 -1 -37 4 -3 4 3 8 14
8 11 0 43 13 73 29 47 25 55 34 69 77 15 47 31 60 80 63 13 0 13 -1 -1 -12z
m179 -32 c25 5 25 5 5 -4 -13 -6 -23 -12 -23 -13 0 -2 21 -3 48 -4 60 0 334
-92 304 -102 -5 -1 -40 9 -78 23 -60 23 -157 46 -204 47 -61 3 -180 -39 -180
-63 0 -4 -9 -11 -20 -14 -24 -8 -78 -55 -63 -55 6 0 43 13 82 30 40 16 88 32
107 36 18 3 34 12 34 19 0 7 7 15 15 19 9 3 15 0 15 -9 0 -8 7 -15 15 -15 8 0
15 6 15 14 0 12 7 13 32 5 17 -5 34 -12 37 -16 6 -8 22 -14 51 -18 8 -1 22 -5
30 -8 31 -13 113 -27 183 -33 103 -7 119 -12 115 -32 -12 -61 -219 -51 -348
17 -58 31 -121 32 -182 3 -26 -12 -53 -22 -60 -22 -12 0 -52 -24 -152 -93 -21
-15 -47 -27 -58 -27 -14 0 -19 -6 -16 -22 2 -19 9 -23 40 -23 29 0 35 -3 25
-12 -7 -7 -23 -14 -37 -15 -19 -2 -26 3 -34 27 -6 17 -14 32 -18 35 -3 3 -9
17 -13 32 -14 56 74 181 158 225 18 9 26 18 20 20 -9 3 -10 10 -3 24 8 14 22
19 53 20 23 0 36 3 29 6 -10 4 -10 8 -1 19 10 13 15 12 31 -6 13 -14 27 -19
46 -15z m167 5 c14 -28 14 -30 -3 -30 -13 0 -18 9 -20 30 -1 17 0 30 3 30 2 0
11 -13 20 -30z m2087 8 c14 -13 28 -36 32 -53 6 -27 5 -28 -6 -10 -6 11 -18
26 -25 33 -14 15 -36 52 -30 52 2 0 15 -10 29 -22z m-2153 -17 c23 -15 -3 -20
-29 -5 -22 12 -23 13 -5 13 11 1 26 -3 34 -8z m141 -26 c0 -8 -7 -15 -15 -15
-16 0 -20 12 -8 23 11 12 23 8 23 -8z m420 -17 c-14 -6 -38 -16 -55 -24 -29
-12 -221 -64 -237 -64 -4 0 -8 4 -8 9 0 5 21 12 46 16 25 3 92 22 147 40 96
33 162 46 107 23z m-675 -46 c-6 -7 -34 11 -29 19 3 5 11 3 19 -4 7 -6 12 -13
10 -15z m2655 8 c0 -5 -8 -10 -17 -10 -15 0 -16 2 -3 10 19 12 20 12 20 0z
m-1553 -6 c-3 -3 -12 -4 -19 -1 -8 3 -5 6 6 6 11 1 17 -2 13 -5z m-212 -44
c-3 -5 -14 -10 -23 -9 -14 0 -13 2 3 9 27 11 27 11 20 0z m175 -34 c9 -12 8
-15 -8 -13 -12 0 -18 6 -15 14 6 16 8 16 23 -1z m-260 -31 c0 -8 -4 -15 -10
-15 -5 0 -7 7 -4 15 4 8 8 15 10 15 2 0 4 -7 4 -15z m337 -55 c6 -31 18 -39
26 -17 3 9 7 9 19 -1 9 -7 24 -9 34 -6 17 6 17 5 -1 -10 -14 -12 -15 -16 -5
-14 8 1 25 -4 38 -11 46 -25 62 -45 62 -78 0 -23 5 -33 15 -33 18 0 19 -9 4
-30 -8 -11 -12 -12 -16 -2 -8 19 -33 42 -47 42 -7 0 -25 -11 -39 -25 -15 -16
-28 -22 -32 -15 -3 5 -21 10 -38 10 -27 -1 -29 -2 -14 -11 9 -6 14 -15 11 -21
-4 -6 1 -17 11 -24 16 -12 16 -13 -8 -19 -44 -11 -60 -2 -85 50 -13 28 -30 64
-39 80 -8 17 -17 56 -20 87 l-4 57 33 10 c18 5 45 10 61 10 23 1 29 -4 34 -29z
m-1497 0 c0 -5 -7 -10 -16 -10 -8 0 -12 5 -9 10 3 6 10 10 16 10 5 0 9 -4 9
-10z m-110 -14 c0 -11 -19 -15 -25 -6 -3 5 1 10 9 10 9 0 16 -2 16 -4z m110
-20 c0 -9 -8 -13 -22 -9 -22 4 -22 4 -3 -8 29 -17 29 -17 15 -34 -14 -17 -35
-21 -25 -5 4 6 1 17 -5 25 -10 12 -10 18 0 30 16 19 40 19 40 1z m2657 -6 c3
-10 2 -11 -4 -4 -4 6 -15 14 -23 17 -11 5 -9 6 4 4 11 -1 21 -9 23 -17z m343
-45 c19 -22 8 -25 -12 -3 -10 10 -14 18 -9 18 5 0 14 -7 21 -15z m-3050 -17
c0 -6 -7 -7 -16 -4 -9 3 -18 6 -20 6 -3 0 -3 4 1 10 7 11 35 2 35 -12z m975
-69 c-10 -16 -40 -10 -53 11 -20 32 -4 43 29 19 16 -11 27 -25 24 -30z m-999
-10 c13 -10 22 -9 49 5 26 14 37 16 54 7 13 -8 27 -8 38 -2 10 5 32 14 50 20
31 9 32 9 35 -22 2 -27 7 -32 28 -33 49 -1 52 -11 20 -72 -27 -52 -32 -85 -16
-111 3 -5 -14 -6 -39 -3 -55 6 -67 -13 -35 -58 26 -36 18 -38 -24 -7 -17 13
-45 29 -63 36 -17 7 -39 21 -48 32 -10 10 -33 23 -51 29 -27 9 -36 19 -44 52
-10 33 -9 43 5 58 10 11 16 33 15 52 -1 18 -1 42 0 53 3 18 3 18 7 -2 2 -12
11 -27 19 -34z m3230 -7 c59 -32 69 -42 69 -64 -1 -22 2 -25 14 -15 12 10 13
9 7 -1 -8 -13 13 -54 45 -84 28 -28 37 -153 16 -233 -3 -11 -6 -27 -6 -36 -1
-23 -191 -105 -191 -82 0 3 8 17 18 31 26 37 42 88 42 131 0 21 4 41 9 46 9
10 29 67 36 102 4 22 -32 101 -65 143 -11 14 -31 39 -45 56 -43 55 -39 55 51
6z m-1902 -48 c22 -76 58 -154 94 -201 13 -18 22 -39 19 -47 -7 -19 22 -59 39
-52 8 3 11 0 7 -10 -3 -7 0 -14 7 -14 7 0 10 -7 5 -17 -5 -15 -4 -16 6 -5 17
16 32 15 26 -2 -3 -8 1 -20 9 -26 10 -9 14 -9 14 -1 0 6 -5 11 -11 11 -5 0 -7
5 -4 10 4 7 17 1 32 -14 14 -14 47 -42 74 -62 41 -32 46 -40 38 -57 -6 -11
-18 -17 -28 -14 -9 2 -23 -3 -30 -11 -12 -12 -11 -13 5 -9 26 8 65 -74 57
-118 -7 -35 -41 -87 -52 -80 -5 2 -18 -7 -30 -21 l-22 -26 21 -5 c16 -4 18 -8
9 -19 -13 -16 -33 -19 -24 -4 4 6 -7 9 -27 7 -27 -2 -36 -9 -50 -37 -10 -19
-21 -33 -24 -32 -4 2 -11 -2 -15 -10 -7 -10 -9 -9 -9 5 0 9 -7 17 -15 17 -8 0
-15 6 -15 14 0 7 -16 26 -36 41 l-35 27 -66 -32 c-75 -37 -87 -35 -110 23 -13
31 -13 40 -2 53 7 8 20 13 30 11 12 -3 16 0 12 10 -3 8 0 13 8 11 7 -2 18 8
24 21 10 22 13 23 83 17 41 -3 71 -2 68 3 -7 11 44 23 107 25 26 0 47 4 47 9
0 4 9 7 21 7 11 0 18 4 15 9 -6 10 -64 7 -146 -8 -83 -15 -123 -14 -117 3 6
16 -39 26 -119 26 -83 0 -168 66 -208 163 -10 25 -14 61 -12 112 3 71 5 77 39
110 21 20 37 40 37 45 0 5 6 15 13 22 7 7 23 30 36 51 12 20 43 51 67 68 24
17 42 34 39 40 -4 5 3 9 14 9 12 0 21 5 21 10 0 6 10 10 23 10 19 0 25 -10 41
-66z m-727 45 c-14 -8 -16 -14 -6 -25 17 -21 -9 -19 -33 3 -27 24 -22 33 20
33 31 -1 34 -2 19 -11z m-352 -239 c17 -11 40 -20 53 -20 12 0 22 -4 22 -10 0
-5 7 -10 15 -10 8 0 43 -16 78 -35 52 -29 74 -35 123 -35 45 0 55 -3 44 -11
-12 -9 -12 -10 4 -5 29 10 308 26 319 19 6 -3 7 -1 3 5 -4 7 -2 12 3 12 6 0
11 -4 11 -9 0 -5 8 -12 19 -16 13 -4 17 -12 13 -30 -2 -14 5 -38 18 -60 35
-56 25 -64 -72 -60 -201 10 -387 37 -458 67 -19 8 -57 35 -85 60 -27 24 -71
58 -96 75 -54 37 -73 58 -64 73 9 14 16 13 50 -10z m3125 -266 c0 -46 -91
-113 -211 -154 -40 -14 -87 -7 -95 14 -8 21 38 86 61 86 11 1 52 12 90 26 39
14 82 28 98 31 15 3 30 9 33 14 11 18 24 8 24 -17z m-2352 -36 c25 -25 11 -31
-55 -25 -74 6 -103 14 -103 28 0 14 144 11 158 -3z m2280 -221 c3 -12 -2 -16
-17 -14 -25 4 -35 13 -27 25 9 16 41 7 44 -11z m-89 -11 c37 -17 40 -40 5 -34
-16 3 -38 8 -49 13 -16 5 -17 5 -5 -4 25 -18 -3 -12 -30 6 -14 9 -27 18 -29
19 -1 1 0 8 4 14 7 12 65 5 104 -14z m-180 -18 c31 -17 74 -45 96 -62 22 -17
42 -32 44 -33 2 -2 2 -5 0 -8 -3 -2 -29 2 -59 10 -30 8 -67 15 -81 15 -15 0
-30 7 -33 16 -4 11 -14 15 -31 12 -33 -7 -44 10 -33 50 11 40 26 40 97 0z
m-1894 -27 c6 -11 -62 -61 -82 -61 -25 0 -12 18 30 44 50 30 44 28 52 17z
m1676 -43 c13 -33 13 -56 3 -116 -6 -39 -15 -40 -36 -4 -27 45 -33 98 -14 127
22 33 31 32 47 -7z m-1451 12 c0 -5 -3 -10 -7 -10 -5 0 -19 -10 -33 -21 -14
-11 -18 -17 -10 -13 11 5 10 1 -3 -13 -10 -12 -31 -24 -45 -28 -15 -4 -42 -18
-60 -32 -18 -13 -37 -23 -43 -21 -21 7 32 57 108 102 80 48 93 53 93 36z m184
-91 c-11 -51 -34 -65 -34 -20 0 40 20 85 33 72 6 -6 7 -26 1 -52z m1349 -32
c-3 -21 -11 -36 -17 -34 -10 3 -10 21 -1 67 2 8 4 17 4 20 1 2 5 0 11 -6 5 -5
7 -26 3 -47z m-1760 7 c9 -9 -16 -44 -30 -44 -14 0 -16 10 -7 34 6 16 25 21
37 10z m165 -27 c13 1 21 -4 19 -11 -3 -6 -10 -10 -17 -8 -7 2 -20 -4 -29 -12
-19 -17 -58 -18 -84 -1 -16 11 -14 14 15 28 19 9 42 13 53 10 11 -4 30 -7 43
-6z m-257 -20 c-13 -13 -26 -3 -16 12 3 6 11 8 17 5 6 -4 6 -10 -1 -17z m1729
-2 c10 -12 9 -15 -8 -15 -11 0 -25 7 -32 15 -10 12 -9 15 8 15 11 0 25 -7 32
-15z m80 -15 c0 -12 -28 -25 -36 -17 -9 9 6 27 22 27 8 0 14 -5 14 -10z m665
-30 c-3 -5 -11 -10 -16 -10 -6 0 -7 5 -4 10 3 6 11 10 16 10 6 0 7 -4 4 -10z"/>
<path d="M505 3530 c-3 -6 1 -7 9 -4 18 7 21 14 7 14 -6 0 -13 -4 -16 -10z"/>
<path d="M531 3516 c-10 -12 -9 -16 6 -24 10 -5 25 -7 33 -5 11 3 12 2 2 -5
-19 -13 -5 -37 33 -55 30 -14 35 -15 35 -2 0 8 5 15 10 15 6 0 10 -4 10 -10 0
-5 5 -10 10 -10 20 0 9 16 -24 34 -19 10 -39 16 -44 12 -5 -3 -9 1 -8 10 0 9
-8 21 -19 28 -11 6 -23 15 -26 19 -3 4 -11 1 -18 -7z m103 -64 c2 -4 -7 -8
-22 -9 -24 -2 -24 -1 -7 7 11 5 21 9 22 9 1 1 4 -3 7 -7z"/>
<path d="M2198 2483 c7 -3 16 -2 19 1 4 3 -2 6 -13 5 -11 0 -14 -3 -6 -6z"/>
<path d="M2255 2480 c-8 -13 5 -13 25 0 13 8 13 10 -2 10 -9 0 -20 -4 -23 -10z"/>
<path d="M1986 2325 c-3 -8 0 -17 6 -21 6 -4 8 -3 4 4 -3 5 -1 12 6 14 8 3 9
6 1 11 -6 4 -13 0 -17 -8z"/>
<path d="M1741 2034 c0 -11 3 -14 6 -6 3 7 2 16 -1 19 -3 4 -6 -2 -5 -13z"/>
<path d="M1730 1990 c0 -5 5 -10 10 -10 6 0 10 5 10 10 0 6 -4 10 -10 10 -5 0
-10 -4 -10 -10z"/>
<path d="M1255 1981 c-3 -5 -1 -12 5 -16 5 -3 10 1 10 9 0 18 -6 21 -15 7z"/>
<path d="M1285 1960 c-3 -5 1 -10 9 -10 9 0 16 5 16 10 0 6 -4 10 -9 10 -6 0
-13 -4 -16 -10z"/>
<path d="M1586 1943 c-6 -14 -5 -15 5 -6 7 7 10 15 7 18 -3 3 -9 -2 -12 -12z"/>
<path d="M1312 1921 c-9 -5 -4 -8 16 -7 17 1 28 4 25 9 -6 9 -25 9 -41 -2z"/>
<path d="M1415 1919 c-7 -10 21 -38 38 -39 16 0 5 18 -14 23 -12 3 -18 10 -14
16 3 6 4 11 1 11 -3 0 -8 -5 -11 -11z"/>
<path d="M1360 1881 c0 -11 5 -23 10 -26 6 -4 10 5 10 19 0 14 -4 26 -10 26
-5 0 -10 -9 -10 -19z"/>
<path d="M1390 1885 c0 -6 5 -16 12 -23 7 -7 9 -12 5 -12 -4 0 -2 -6 5 -14 16
-17 32 -10 18 7 -6 7 -17 21 -25 32 -8 11 -15 15 -15 10z"/>
<path d="M1649 1878 c-7 -14 -4 -90 4 -95 5 -3 7 -1 3 5 -3 6 -2 13 3 17 6 3
8 12 4 20 -3 9 1 15 8 15 11 0 11 3 -1 11 -11 8 -6 9 20 4 l35 -6 -34 16 c-34
15 -40 17 -42 13z"/>
<path d="M1740 1850 c-9 -6 -10 -10 -3 -10 6 0 15 5 18 10 8 12 4 12 -15 0z"/>
<path d="M2701 1846 c-10 -12 -8 -14 11 -9 18 4 20 3 8 -6 -18 -13 -3 -13 25
-1 17 7 17 9 3 9 -10 1 -18 6 -18 11 0 15 -16 12 -29 -4z"/>
<path d="M1525 1840 c28 -12 47 -12 40 0 -3 6 -18 10 -33 9 -24 0 -25 -1 -7
-9z"/>
<path d="M1475 1830 c4 -6 11 -8 16 -5 14 9 11 15 -7 15 -8 0 -12 -5 -9 -10z"/>
<path d="M1577 1829 c-10 -6 -29 -8 -43 -5 -25 7 -34 -8 -11 -18 6 -3 3 -4 -8
-1 -11 2 -27 0 -35 -5 -12 -8 -10 -10 10 -10 41 0 98 19 104 35 6 18 6 18 -17
4z"/>
<path d="M1395 1810 c-3 -5 -1 -10 4 -10 6 0 11 5 11 10 0 6 -2 10 -4 10 -3 0
-8 -4 -11 -10z"/>
<path d="M1671 1564 c0 -11 3 -14 6 -6 3 7 2 16 -1 19 -3 4 -6 -2 -5 -13z"/>
<path d="M1821 1554 c0 -11 3 -14 6 -6 3 7 2 16 -1 19 -3 4 -6 -2 -5 -13z"/>
<path d="M2134 1459 c-5 -9 60 -15 104 -11 17 2 32 7 32 12 0 11 -129 9 -136
-1z"/>
<path d="M2870 1170 c0 -5 5 -10 10 -10 6 0 10 5 10 10 0 6 -4 10 -10 10 -5 0
-10 -4 -10 -10z"/>
<path d="M3228 1153 c7 -3 16 -2 19 1 4 3 -2 6 -13 5 -11 0 -14 -3 -6 -6z"/>
<path d="M3286 1081 c-4 -7 -5 -15 -2 -18 9 -9 19 4 14 18 -4 11 -6 11 -12 0z"/>
<path d="M3365 1020 c3 -5 8 -10 11 -10 2 0 4 5 4 10 0 6 -5 10 -11 10 -5 0
-7 -4 -4 -10z"/>
<path d="M280 1389 c0 -5 5 -7 10 -4 6 3 10 8 10 11 0 2 -4 4 -10 4 -5 0 -10
-5 -10 -11z"/>
<path d="M1748 1253 c-25 -29 -28 -50 -12 -82 18 -37 32 -47 46 -33 7 7 6 22
-3 46 -10 28 -10 39 -1 48 16 16 15 38 -1 38 -8 0 -21 -8 -29 -17z"/>
<path d="M1870 1187 c0 -19 16 -31 24 -18 3 5 -1 14 -9 21 -12 10 -15 10 -15
-3z"/>
<path d="M1770 560 c0 -5 -11 -10 -24 -10 -14 0 -27 -4 -30 -9 -3 -5 4 -9 17
-9 12 0 31 -2 42 -4 14 -2 21 3 23 20 2 15 -2 22 -12 22 -9 0 -16 -4 -16 -10z"/>
<path d="M1812 507 c-7 -9 -8 -17 -1 -27 8 -11 12 -12 15 -3 3 7 12 9 21 6 13
-5 14 -3 4 15 -13 25 -24 27 -39 9z"/>
<path d="M1795 450 c3 -5 8 -10 11 -10 2 0 4 5 4 10 0 6 -5 10 -11 10 -5 0 -7
-4 -4 -10z"/>
<path d="M1801 421 c-9 -6 -10 -11 -2 -15 13 -8 31 1 31 15 0 11 -11 11 -29 0z"/>
<path d="M1836 404 c-27 -19 -13 -30 14 -11 12 8 18 17 13 20 -4 3 -17 -1 -27
-9z"/>
<path d="M1505 400 c4 -6 11 -8 16 -5 14 9 11 15 -7 15 -8 0 -12 -5 -9 -10z"/>
<path d="M3379 3609 c4 -13 18 -25 30 -27 12 -2 19 -7 16 -12 -8 -12 55 -24
67 -12 12 12 -28 42 -57 42 -16 0 -17 2 -5 10 12 8 11 10 -7 10 -12 0 -29 3
-37 6 -13 5 -15 2 -7 -17z"/>
<path d="M2881 3351 c-8 -5 -10 -14 -6 -21 4 -7 2 -16 -6 -21 -7 -4 -11 -10
-8 -13 8 -9 27 8 31 29 1 11 8 23 13 27 15 11 -7 10 -24 -1z"/>
<path d="M2850 3200 c0 -6 7 -10 15 -10 8 0 15 2 15 4 0 2 -7 6 -15 10 -8 3
-15 1 -15 -4z"/>
<path d="M3940 3085 c32 -42 49 -57 60 -53 6 2 -8 19 -32 38 -24 19 -36 25
-28 15z"/>
<path d="M2753 2900 c-6 -16 -7 -30 -2 -30 5 0 9 5 9 10 0 6 6 10 14 10 9 0
12 7 9 20 -7 28 -17 25 -30 -10z"/>
</g>
</svg>
